<svg xmlns="http://www.w3.org/2000/svg" xmlns:xlink="http://www.w3.org/1999/xlink" version="1.1" class="marks" width="850" height="489" viewBox="0 0 850 489"><rect width="850" height="489" fill="white"/><g fill="none" stroke-miterlimit="10" transform="translate(43,34)"><g class="mark-group role-frame root" role="graphics-object" aria-roledescription="group mark container"><g transform="translate(0,0)"><path class="background" aria-hidden="true" d="M0.5,0.5h800v400h-800Z" stroke="#ddd"/><g><g class="mark-group role-axis" aria-hidden="true"><g transform="translate(0.5,0.5)"><path class="background" aria-hidden="true" d="M0,0h0v0h0Z" pointer-events="none"/><g><g class="mark-rule role-axis-grid" pointer-events="none"><line transform="translate(0,400)" x2="800" y2="0" stroke="#ddd" stroke-width="1" opacity="1"/><line transform="translate(0,356)" x2="800" y2="0" stroke="#ddd" stroke-width="1" opacity="1"/><line transform="translate(0,311)" x2="800" y2="0" stroke="#ddd" stroke-width="1" opacity="1"/><line transform="translate(0,267)" x2="800" y2="0" stroke="#ddd" stroke-width="1" opacity="1"/><line transform="translate(0,222)" x2="800" y2="0" stroke="#ddd" stroke-width="1" opacity="1"/><line transform="translate(0,178)" x2="800" y2="0" stroke="#ddd" stroke-width="1" opacity="1"/><line transform="translate(0,133)" x2="800" y2="0" stroke="#ddd" stroke-width="1" opacity="1"/><line transform="translate(0,89)" x2="800" y2="0" stroke="#ddd" stroke-width="1" opacity="1"/><line transform="translate(0,44)" x2="800" y2="0" stroke="#ddd" stroke-width="1" opacity="1"/><line transform="translate(0,0)" x2="800" y2="0" stroke="#ddd" stroke-width="1" opacity="1"/></g></g><path class="foreground" aria-hidden="true" d="" pointer-events="none" display="none"/></g></g><g class="mark-group role-axis" role="graphics-symbol" aria-roledescription="axis" aria-label="X-axis titled 'Stock Name' for a discrete scale with 28 values: AAPL, AMZN, CCL, CEG, DIS, ending with XOM"><g transform="translate(0.5,400.5)"><path class="background" aria-hidden="true" d="M0,0h0v0h0Z" pointer-events="none"/><g><g class="mark-rule role-axis-tick" pointer-events="none"><line transform="translate(14,0)" x2="0" y2="5" stroke="#888" stroke-width="1" opacity="1"/><line transform="translate(42,0)" x2="0" y2="5" stroke="#888" stroke-width="1" opacity="1"/><line transform="translate(71,0)" x2="0" y2="5" stroke="#888" stroke-width="1" opacity="1"/><line transform="translate(100,0)" x2="0" y2="5" stroke="#888" stroke-width="1" opacity="1"/><line transform="translate(128,0)" x2="0" y2="5" stroke="#888" stroke-width="1" opacity="1"/><line transform="translate(157,0)" x2="0" y2="5" stroke="#888" stroke-width="1" opacity="1"/><line transform="translate(185,0)" x2="0" y2="5" stroke="#888" stroke-width="1" opacity="1"/><line transform="translate(214,0)" x2="0" y2="5" stroke="#888" stroke-width="1" opacity="1"/><line transform="translate(242,0)" x2="0" y2="5" stroke="#888" stroke-width="1" opacity="1"/><line transform="translate(271,0)" x2="0" y2="5" stroke="#888" stroke-width="1" opacity="1"/><line transform="translate(300,0)" x2="0" y2="5" stroke="#888" stroke-width="1" opacity="1"/><line transform="translate(328,0)" x2="0" y2="5" stroke="#888" stroke-width="1" opacity="1"/><line transform="translate(357,0)" x2="0" y2="5" stroke="#888" stroke-width="1" opacity="1"/><line transform="translate(385,0)" x2="0" y2="5" stroke="#888" stroke-width="1" opacity="1"/><line transform="translate(414,0)" x2="0" y2="5" stroke="#888" stroke-width="1" opacity="1"/><line transform="translate(442,0)" x2="0" y2="5" stroke="#888" stroke-width="1" opacity="1"/><line transform="translate(471,0)" x2="0" y2="5" stroke="#888" stroke-width="1" opacity="1"/><line transform="translate(500,0)" x2="0" y2="5" stroke="#888" stroke-width="1" opacity="1"/><line transform="translate(528,0)" x2="0" y2="5" stroke="#888" stroke-width="1" opacity="1"/><line transform="translate(557,0)" x2="0" y2="5" stroke="#888" stroke-width="1" opacity="1"/><line transform="translate(585,0)" x2="0" y2="5" stroke="#888" stroke-width="1" opacity="1"/><line transform="translate(614,0)" x2="0" y2="5" stroke="#888" stroke-width="1" opacity="1"/><line transform="translate(642,0)" x2="0" y2="5" stroke="#888" stroke-width="1" opacity="1"/><line transform="translate(671,0)" x2="0" y2="5" stroke="#888" stroke-width="1" opacity="1"/><line transform="translate(700,0)" x2="0" y2="5" stroke="#888" stroke-width="1" opacity="1"/><line transform="translate(728,0)" x2="0" y2="5" stroke="#888" stroke-width="1" opacity="1"/><line transform="translate(757,0)" x2="0" y2="5" stroke="#888" stroke-width="1" opacity="1"/><line transform="translate(785,0)" x2="0" y2="5" stroke="#888" stroke-width="1" opacity="1"/></g><g class="mark-text role-axis-label" pointer-events="none"><text text-anchor="start" transform="translate(13.785714285714302,7) rotate(45) translate(0,8)" font-family="sans-serif" font-size="10px" fill="#000" opacity="1">AAPL</text><text text-anchor="start" transform="translate(42.357142857142875,7) rotate(45) translate(0,8)" font-family="sans-serif" font-size="10px" fill="#000" opacity="1">AMZN</text><text text-anchor="start" transform="translate(70.92857142857144,7) rotate(45) translate(0,8)" font-family="sans-serif" font-size="10px" fill="#000" opacity="1">CCL</text><text text-anchor="start" transform="translate(99.50000000000003,7) rotate(45) translate(0,8)" font-family="sans-serif" font-size="10px" fill="#000" opacity="1">CEG</text><text text-anchor="start" transform="translate(128.07142857142858,7) rotate(45) translate(0,8)" font-family="sans-serif" font-size="10px" fill="#000" opacity="1">DIS</text><text text-anchor="start" transform="translate(156.64285714285717,7) rotate(45) translate(0,8)" font-family="sans-serif" font-size="10px" fill="#000" opacity="1">DLTR</text><text text-anchor="start" transform="translate(185.21428571428575,7) rotate(45) translate(0,8)" font-family="sans-serif" font-size="10px" fill="#000" opacity="1">HUM</text><text text-anchor="start" transform="translate(213.7857142857143,7) rotate(45) translate(0,8)" font-family="sans-serif" font-size="10px" fill="#000" opacity="1">HWM</text><text text-anchor="start" transform="translate(242.3571428571429,7) rotate(45) translate(0,8)" font-family="sans-serif" font-size="10px" fill="#000" opacity="1">INTC</text><text text-anchor="start" transform="translate(270.92857142857144,7) rotate(45) translate(0,8)" font-family="sans-serif" font-size="10px" fill="#000" opacity="1">JNJ</text><text text-anchor="start" transform="translate(299.5,7) rotate(45) translate(0,8)" font-family="sans-serif" font-size="10px" fill="#000" opacity="1">KO</text><text text-anchor="start" transform="translate(328.07142857142856,7) rotate(45) translate(0,8)" font-family="sans-serif" font-size="10px" fill="#000" opacity="1">LULU</text><text text-anchor="start" transform="translate(356.64285714285717,7) rotate(45) translate(0,8)" font-family="sans-serif" font-size="10px" fill="#000" opacity="1">MCD</text><text text-anchor="start" transform="translate(385.2142857142857,7) rotate(45) translate(0,8)" font-family="sans-serif" font-size="10px" fill="#000" opacity="1">META</text><text text-anchor="start" transform="translate(413.7857142857143,7) rotate(45) translate(0,8)" font-family="sans-serif" font-size="10px" fill="#000" opacity="1">MMM</text><text text-anchor="start" transform="translate(442.3571428571429,7) rotate(45) translate(0,8)" font-family="sans-serif" font-size="10px" fill="#000" opacity="1">MSFT</text><text text-anchor="start" transform="translate(470.92857142857144,7) rotate(45) translate(0,8)" font-family="sans-serif" font-size="10px" fill="#000" opacity="1">NFLX</text><text text-anchor="start" transform="translate(499.5,7) rotate(45) translate(0,8)" font-family="sans-serif" font-size="10px" fill="#000" opacity="1">NKE</text><text text-anchor="start" transform="translate(528.0714285714287,7) rotate(45) translate(0,8)" font-family="sans-serif" font-size="10px" fill="#000" opacity="1">NVDA</text><text text-anchor="start" transform="translate(556.6428571428572,7) rotate(45) translate(0,8)" font-family="sans-serif" font-size="10px" fill="#000" opacity="1">PFE</text><text text-anchor="start" transform="translate(585.2142857142858,7) rotate(45) translate(0,8)" font-family="sans-serif" font-size="10px" fill="#000" opacity="1">PG</text><text text-anchor="start" transform="translate(613.7857142857143,7) rotate(45) translate(0,8)" font-family="sans-serif" font-size="10px" fill="#000" opacity="1">T</text><text text-anchor="start" transform="translate(642.3571428571429,7) rotate(45) translate(0,8)" font-family="sans-serif" font-size="10px" fill="#000" opacity="1">TGT</text><text text-anchor="start" transform="translate(670.9285714285716,7) rotate(45) translate(0,8)" font-family="sans-serif" font-size="10px" fill="#000" opacity="1">TSLA</text><text text-anchor="start" transform="translate(699.5000000000001,7) rotate(45) translate(0,8)" font-family="sans-serif" font-size="10px" fill="#000" opacity="1">VZ</text><text text-anchor="start" transform="translate(728.0714285714287,7) rotate(45) translate(0,8)" font-family="sans-serif" font-size="10px" fill="#000" opacity="1">WBA</text><text text-anchor="start" transform="translate(756.6428571428572,7) rotate(45) translate(0,8)" font-family="sans-serif" font-size="10px" fill="#000" opacity="1">WMT</text><text text-anchor="start" transform="translate(785.2142857142858,7) rotate(45) translate(0,8)" font-family="sans-serif" font-size="10px" fill="#000" opacity="1">XOM</text></g><g class="mark-rule role-axis-domain" pointer-events="none"><line transform="translate(0,0)" x2="800" y2="0" stroke="#888" stroke-width="1" opacity="1"/></g><g class="mark-text role-axis-title" pointer-events="none"><text text-anchor="middle" transform="translate(400,47.103458165597644)" font-family="sans-serif" font-size="11px" font-weight="bold" fill="#000" opacity="1">Stock Name</text></g></g><path class="foreground" aria-hidden="true" d="" pointer-events="none" display="none"/></g></g><g class="mark-group role-axis" role="graphics-symbol" aria-roledescription="axis" aria-label="Y-axis titled 'Profit %' for a linear scale with values from −10 to 80"><g transform="translate(0.5,0.5)"><path class="background" aria-hidden="true" d="M0,0h0v0h0Z" pointer-events="none"/><g><g class="mark-rule role-axis-tick" pointer-events="none"><line transform="translate(0,400)" x2="-5" y2="0" stroke="#888" stroke-width="1" opacity="1"/><line transform="translate(0,356)" x2="-5" y2="0" stroke="#888" stroke-width="1" opacity="1"/><line transform="translate(0,311)" x2="-5" y2="0" stroke="#888" stroke-width="1" opacity="1"/><line transform="translate(0,267)" x2="-5" y2="0" stroke="#888" stroke-width="1" opacity="1"/><line transform="translate(0,222)" x2="-5" y2="0" stroke="#888" stroke-width="1" opacity="1"/><line transform="translate(0,178)" x2="-5" y2="0" stroke="#888" stroke-width="1" opacity="1"/><line transform="translate(0,133)" x2="-5" y2="0" stroke="#888" stroke-width="1" opacity="1"/><line transform="translate(0,89)" x2="-5" y2="0" stroke="#888" stroke-width="1" opacity="1"/><line transform="translate(0,44)" x2="-5" y2="0" stroke="#888" stroke-width="1" opacity="1"/><line transform="translate(0,0)" x2="-5" y2="0" stroke="#888" stroke-width="1" opacity="1"/></g><g class="mark-text role-axis-label" pointer-events="none"><text text-anchor="end" transform="translate(-7,400) rotate(45) translate(0,3)" font-family="sans-serif" font-size="10px" fill="#000" opacity="1">−10</text><text text-anchor="end" transform="translate(-7,355.55555555555554) rotate(45) translate(0,3)" font-family="sans-serif" font-size="10px" fill="#000" opacity="1">0</text><text text-anchor="end" transform="translate(-7,311.11111111111114) rotate(45) translate(0,3)" font-family="sans-serif" font-size="10px" fill="#000" opacity="1">10</text><text text-anchor="end" transform="translate(-7,266.6666666666667) rotate(45) translate(0,3)" font-family="sans-serif" font-size="10px" fill="#000" opacity="1">20</text><text text-anchor="end" transform="translate(-7,222.22222222222223) rotate(45) translate(0,3)" font-family="sans-serif" font-size="10px" fill="#000" opacity="1">30</text><text text-anchor="end" transform="translate(-7,177.77777777777777) rotate(45) translate(0,3)" font-family="sans-serif" font-size="10px" fill="#000" opacity="1">40</text><text text-anchor="end" transform="translate(-7,133.33333333333334) rotate(45) translate(0,3)" font-family="sans-serif" font-size="10px" fill="#000" opacity="1">50</text><text text-anchor="end" transform="translate(-7,88.88888888888889) rotate(45) translate(0,3)" font-family="sans-serif" font-size="10px" fill="#000" opacity="1">60</text><text text-anchor="end" transform="translate(-7,44.444444444444464) rotate(45) translate(0,3)" font-family="sans-serif" font-size="10px" fill="#000" opacity="1">70</text><text text-anchor="end" transform="translate(-7,0) rotate(45) translate(0,3)" font-family="sans-serif" font-size="10px" fill="#000" opacity="1">80</text></g><g class="mark-rule role-axis-domain" pointer-events="none"><line transform="translate(0,400)" x2="0" y2="-400" stroke="#888" stroke-width="1" opacity="1"/></g><g class="mark-text role-axis-title" pointer-events="none"><text text-anchor="middle" transform="translate(-26.530108895395983,200) rotate(-90) translate(0,-2)" font-family="sans-serif" font-size="11px" font-weight="bold" fill="#000" opacity="1">Profit %</text></g></g><path class="foreground" aria-hidden="true" d="" pointer-events="none" display="none"/></g></g><g class="mark-rect role-mark marks" role="graphics-object" aria-roledescription="rect mark container"><path aria-label="Stock Name: AAPL; Profit %: 22.5026783845; Portfolio Value: 12250.2678385" role="graphics-symbol" aria-roledescription="bar" d="M1.4285714285714448,255.5436516244363h25.714285714285715v100.01190393111924h-25.714285714285715Z" fill="green"/><path aria-label="Stock Name: AMZN; Profit %: 9.99325095867; Portfolio Value: 10999.3250959" role="graphics-symbol" aria-roledescription="bar" d="M30.000000000000018,311.14110685036445h25.714285714285715v44.41444870519109h-25.714285714285715Z" fill="green"/><path aria-label="Stock Name: CCL; Profit %: 4.61862531662; Portfolio Value: 10461.8625317" role="graphics-symbol" aria-roledescription="bar" d="M58.57142857142859,335.0283319261339h25.714285714285715v20.527223629421655h-25.714285714285715Z" fill="green"/><path aria-label="Stock Name: CEG; Profit %: 75.1306596277; Portfolio Value: 17513.0659628" role="graphics-symbol" aria-roledescription="bar" d="M87.14285714285717,21.641512765651292h25.714285714285715v333.9140427899043h-25.714285714285715Z" fill="green"/><path aria-label="Stock Name: DIS; Profit %: −5.68139358792; Portfolio Value: 9431.86064121" role="graphics-symbol" aria-roledescription="bar" d="M115.71428571428574,355.55555555555554h25.714285714285715v25.25063816854629h-25.714285714285715Z" fill="red"/><path aria-label="Stock Name: DLTR; Profit %: 0; Portfolio Value: 10000" role="graphics-symbol" aria-roledescription="bar" d="M144.2857142857143,355.55555555555554h25.714285714285715v0h-25.714285714285715Z" fill="red"/><path aria-label="Stock Name: HUM; Profit %: −2.62099975586; Portfolio Value: 9737.90002441" role="graphics-symbol" aria-roledescription="bar" d="M172.8571428571429,355.55555555555554h25.714285714285715v11.648887803819434h-25.714285714285715Z" fill="red"/><path aria-label="Stock Name: HWM; Profit %: 74.8096051393; Portfolio Value: 17480.9605139" role="graphics-symbol" aria-roledescription="bar" d="M201.42857142857144,23.0684216030852h25.714285714285715v332.48713395247034h-25.714285714285715Z" fill="green"/><path aria-label="Stock Name: INTC; Profit %: −0.664938011169; Portfolio Value: 9933.50619888" role="graphics-symbol" aria-roledescription="bar" d="M230.00000000000003,355.55555555555554h25.714285714285715v2.9552800496419422h-25.714285714285715Z" fill="red"/><path aria-label="Stock Name: JNJ; Profit %: 9.61652867542; Portfolio Value: 10961.6528675" role="graphics-symbol" aria-roledescription="bar" d="M258.5714285714286,312.8154281092574h25.714285714285715v42.74012744629812h-25.714285714285715Z" fill="green"/><path aria-label="Stock Name: KO; Profit %: 13.3744401821; Portfolio Value: 11337.4440182" role="graphics-symbol" aria-roledescription="bar" d="M287.14285714285717,296.11359919049994h25.714285714285715v59.4419563650556h-25.714285714285715Z" fill="green"/><path aria-label="Stock Name: LULU; Profit %: −5.61659851074; Portfolio Value: 9438.34014893" role="graphics-symbol" aria-roledescription="bar" d="M315.7142857142857,355.55555555555554h25.714285714285715v24.962660047743157h-25.714285714285715Z" fill="red"/><path aria-label="Stock Name: MCD; Profit %: 3.09240158081; Portfolio Value: 10309.2401581" role="graphics-symbol" aria-roledescription="bar" d="M344.28571428571433,341.8115485297308h25.714285714285715v13.744007025824715h-25.714285714285715Z" fill="green"/><path aria-label="Stock Name: META; Profit %: 78.1498161741; Portfolio Value: 17814.9816174" role="graphics-symbol" aria-roledescription="bar" d="M372.8571428571429,8.223039226169293h25.714285714285715v347.33251632938624h-25.714285714285715Z" fill="green"/><path aria-label="Stock Name: MMM; Profit %: 10.6118984985; Portfolio Value: 11061.1898499" role="graphics-symbol" aria-roledescription="bar" d="M401.42857142857144,308.39156222873265h25.714285714285715v47.16399332682289h-25.714285714285715Z" fill="green"/><path aria-label="Stock Name: MSFT; Profit %: 8.92311155212; Portfolio Value: 10892.3111552" role="graphics-symbol" aria-roledescription="bar" d="M430.00000000000006,315.8972819905792h25.714285714285715v39.658273564976355h-25.714285714285715Z" fill="green"/><path aria-label="Stock Name: NFLX; Profit %: 48.0093351461; Portfolio Value: 14800.9335146" role="graphics-symbol" aria-roledescription="bar" d="M458.5714285714286,142.18073268419897h25.714285714285715v213.37482287135657h-25.714285714285715Z" fill="green"/><path aria-label="Stock Name: NKE; Profit %: −0.179300003052; Portfolio Value: 9982.06999969" role="graphics-symbol" aria-roledescription="bar" d="M487.14285714285717,355.55555555555554h25.714285714285715v0.796888902452281h-25.714285714285715Z" fill="red"/><path aria-label="Stock Name: NVDA; Profit %: 47.5195670319; Portfolio Value: 14751.9567032" role="graphics-symbol" aria-roledescription="bar" d="M515.7142857142858,144.35747985839845h25.714285714285715v211.1980756971571h-25.714285714285715Z" fill="green"/><path aria-label="Stock Name: PFE; Profit %: −0.0628497695923; Portfolio Value: 9993.71502304" role="graphics-symbol" aria-roledescription="bar" d="M544.2857142857143,355.55555555555554h25.714285714285715v0.2793323092990363h-25.714285714285715Z" fill="red"/><path aria-label="Stock Name: PG; Profit %: 1.67875; Portfolio Value: 10167.875" role="graphics-symbol" aria-roledescription="bar" d="M572.8571428571429,348.09444444444443h25.714285714285715v7.461111111111109h-25.714285714285715Z" fill="green"/><path aria-label="Stock Name: T; Profit %: 10.5179516602; Portfolio Value: 11051.795166" role="graphics-symbol" aria-roledescription="bar" d="M601.4285714285714,308.80910373263896h25.714285714285715v46.74645182291658h-25.714285714285715Z" fill="green"/><path aria-label="Stock Name: TGT; Profit %: 0.758398284912; Portfolio Value: 10075.8398285" role="graphics-symbol" aria-roledescription="bar" d="M630,352.1848965115017h25.714285714285715v3.370659044053866h-25.714285714285715Z" fill="green"/><path aria-label="Stock Name: TSLA; Profit %: 10.6409146837; Portfolio Value: 11064.0914684" role="graphics-symbol" aria-roledescription="bar" d="M658.5714285714287,308.26260140564676h25.714285714285715v47.29295414990878h-25.714285714285715Z" fill="green"/><path aria-label="Stock Name: VZ; Profit %: 5.08703425599; Portfolio Value: 10508.7034256" role="graphics-symbol" aria-roledescription="bar" d="M687.1428571428572,332.94651441780763h25.714285714285715v22.60904113774791h-25.714285714285715Z" fill="green"/><path aria-label="Stock Name: WBA; Profit %: −3.14055013657; Portfolio Value: 9685.94498634" role="graphics-symbol" aria-roledescription="bar" d="M715.7142857142858,355.55555555555554h25.714285714285715v13.958000606960752h-25.714285714285715Z" fill="red"/><path aria-label="Stock Name: WMT; Profit %: 10.1783518219; Portfolio Value: 11017.8351822" role="graphics-symbol" aria-roledescription="bar" d="M744.2857142857143,310.3184363471138h25.714285714285715v45.237119208441754h-25.714285714285715Z" fill="green"/><path aria-label="Stock Name: XOM; Profit %: 3.00003334045; Portfolio Value: 10300.003334" role="graphics-symbol" aria-roledescription="bar" d="M772.8571428571429,342.22207404242624h25.714285714285715v13.3334815131293h-25.714285714285715Z" fill="green"/></g><g class="mark-group role-title"><g transform="translate(400,-28.400715778701077)"><path class="background" aria-hidden="true" d="M0,0h0v0h0Z" pointer-events="none"/><g><g class="mark-text role-title-text" role="graphics-symbol" aria-roledescription="title" aria-label="Title text '10/19/2023 - 10/24/2024 Portfolio Value by Stock'" pointer-events="none"><text text-anchor="middle" transform="translate(0,10)" font-family="sans-serif" font-size="13px" font-weight="bold" fill="#000" opacity="1">10/19/2023 - 10/24/2024 Portfolio Value by Stock</text></g></g><path class="foreground" aria-hidden="true" d="" pointer-events="none" display="none"/></g></g></g><path class="foreground" aria-hidden="true" d="" display="none"/></g></g></g></svg>